<svg xmlns="http://www.w3.org/2000/svg" version="1.1" xmlns:xlink="http://www.w3.org/1999/xlink" xmlns:svgjs="http://svgjs.dev/svgjs" width="1500" height="1500" viewBox="0 0 1500 1500"><rect width="1500" height="1500" fill="#000000"></rect><g transform="matrix(0.6666666666666666,0,0,0.6666666666666666,249.39393939393938,438.5856950067477)"><svg viewBox="0 0 396 247" data-background-color="#8d021f" preserveAspectRatio="xMidYMid meet" height="935" width="1500" xmlns="http://www.w3.org/2000/svg" xmlns:xlink="http://www.w3.org/1999/xlink"><g id="tight-bounds" transform="matrix(1,0,0,1,0.2400000000000091,-0.09999999999999432)"><svg viewBox="0 0 395.52 247.2" height="247.2" width="395.52"><g><svg></svg></g><g><svg viewBox="0 0 395.52 247.2" height="247.2" width="395.52"><g><path d="M55.039 247.2l26.403-45.732 6.32 0-23.07 39.959h266.136l-23.07-39.959 6.32 0 26.403 45.732zM197.76 0l26.403 45.732-6.319 0-20.084-34.786-20.084 34.786-6.319 0z" fill="#ffffff" fill-rule="nonzero" stroke="none" stroke-width="1" stroke-linecap="butt" stroke-linejoin="miter" stroke-miterlimit="10" stroke-dasharray="" stroke-dashoffset="0" font-family="none" font-weight="none" font-size="none" text-anchor="none" style="mix-blend-mode: normal" data-fill-palette-color="tertiary"></path></g><g transform="matrix(1,0,0,1,94.80733365681148,67.97999999999999)"><svg viewBox="0 0 205.90533268637702 111.24" height="111.24" width="205.90533268637702"><g><svg viewBox="0 0 247.08639922365245 133.488" height="111.24" width="205.90533268637702"><g><rect width="10.031737999679999" height="133.488" x="96.74383104826637" y="0" fill="#ffffff" opacity="1" stroke-width="0" stroke="transparent" fill-opacity="1" class="rect-qz-0" data-fill-palette-color="primary" rx="1%" id="qz-0" data-palette-color="#ffffff"></rect></g><g transform="matrix(1,0,0,1,133.03666328794637,11.124000000000002)"><svg viewBox="0 0 114.0497359357061 111.24" height="111.24" width="114.0497359357061"><g id="textblocktransform"><svg viewBox="0 0 114.0497359357061 111.24" height="111.24" width="114.0497359357061" id="textblock"><g><svg viewBox="0 0 114.0497359357061 111.24" height="111.24" width="114.0497359357061"><g transform="matrix(1,0,0,1,0,0)"><svg width="114.0497359357061" viewBox="-4.55 -33.4 44.65 43.55" height="111.24" data-palette-color="#ffffff"><path d="M6.6-27.15Q5.3-27.15 4.4-28.08 3.5-29 3.5-30.25L3.5-30.25Q3.5-31.55 4.4-32.48 5.3-33.4 6.6-33.4L6.6-33.4Q7.9-33.4 8.83-32.48 9.75-31.55 9.75-30.25L9.75-30.25Q9.75-29 8.8-28.08 7.85-27.15 6.6-27.15L6.6-27.15ZM-2.9 4.75Q-1.2 7.25 1.15 7.25L1.15 7.25Q2.5 7.25 3.3 6.23 4.1 5.2 4.1 3.5L4.1 3.5 4.1-24 9.15-24 9.15 2.5Q9.15 6.3 7.15 8.22 5.15 10.15 1.45 10.15L1.45 10.15Q-1.5 10.15-4.55 8.35L-4.55 8.35-2.9 4.75ZM27.5-30.65Q32.45-30.65 35.22-28.7 38-26.75 39.05-23.4 40.1-20.05 40.1-15.3L40.1-15.3Q40.1-10.55 39.05-7.23 38-3.9 35.22-1.95 32.45 0 27.5 0L27.5 0 17.35 0 17.35-30.65 27.5-30.65ZM26.9-1.9Q31.6-1.9 33.27-5.43 34.95-8.95 34.95-15.3L34.95-15.3Q34.95-21.7 33.27-25.23 31.6-28.75 26.9-28.75L26.9-28.75 22.45-28.75 22.45-1.9 26.9-1.9Z" opacity="1" transform="matrix(1,0,0,1,0,0)" fill="#ffffff" class="wordmark-text-0" data-fill-palette-color="primary" id="text-0"></path></svg></g></svg></g></svg></g></svg></g><g transform="matrix(1,0,0,1,0,49.07975713434212)"><svg viewBox="0 0 70.48273680826637 35.32848573131577" height="35.32848573131577" width="70.48273680826637"><g><svg xmlns="http://www.w3.org/2000/svg" xmlns:xlink="http://www.w3.org/1999/xlink" xml:space="preserve" style="shape-rendering:geometricPrecision;text-rendering:geometricPrecision;image-rendering:optimizeQuality;" viewBox="0.0000020000000000575113 0.0000027841116459863258 14.727499 7.381952827609914" x="0" y="0" fill-rule="evenodd" clip-rule="evenodd" width="70.48273680826637" height="35.32848573131577" class="icon-icon-0" data-fill-palette-color="accent" id="icon-0"><g fill="#ffffff" data-fill-palette-color="accent"><path class="" d="M1.757 3.091c-0.313 0.444-0.296 1.331-0.417 1.95-0.153 0.784-0.711 1.203-1.34 1.534 0.188-0.771 0.348-1.542 0.412-2.313 0.078-0.953-0.06-0.891 0.767-1.575 1.159-0.961 3.04-1.741 5.848-2.29 2.456-0.406 5.049-0.453 7.701-0.351-0.89 1.809-3.733 1.961-7.203 1.581-1.811 0.02-3.495-0.488-5.768 1.464z m8.33 2.781c-3.895 2.038-7.803-2.284-9.165 0.688 2.104-1.831 5.079 3.183 9.165-0.688z m2.489-2.547c-4.49 2.72-9.502-0.792-10.907 1.859 3.412-1.235 7.765 2.753 10.907-1.859z m0.834-1.478c-3.944 1.761-10.043-1.402-11.565 2.239 3.106-1.808 8.446 1.438 11.565-2.239z" fill="#ffffff" data-fill-palette-color="accent"></path></g></svg></g></svg></g></svg></g></svg></g></svg></g><defs></defs></svg><rect width="395.52" height="247.2" fill="none" stroke="none" visibility="hidden"></rect></g></svg></g></svg>